<svg width="430" height="430" viewBox="0 0 430 430" fill="none" xmlns="http://www.w3.org/2000/svg">
<g clip-path="url(#clip0_184_526)">
<rect width="430" height="430" fill="#1EA1ED"/>
<path opacity="0.2" d="M-38.25 -124.875C-38.25 -57.7421 -11.5816 6.64125 35.8886 54.1114C83.3587 101.582 147.742 128.25 214.875 128.25C282.008 128.25 346.391 101.582 393.861 54.1114C441.332 6.64129 468 -57.742 468 -124.875L214.875 -124.875H-38.25Z" fill="#D9D9D9"/>
<path opacity="0.2" d="M-165.824 -124.8C-165.824 -23.7461 -125.681 73.1688 -54.2247 144.625C17.2312 216.081 114.146 256.224 215.2 256.224C316.254 256.224 413.169 216.081 484.625 144.625C556.08 73.1689 596.224 -23.7461 596.224 -124.8L215.2 -124.8H-165.824Z" fill="#D9D9D9"/>
</g>
<defs>
<clipPath id="clip0_184_526">
<rect width="430" height="430" fill="white"/>
</clipPath>
</defs>
</svg>
